<svg width="211" height="86" viewBox="0 0 211 86" fill="none" xmlns="http://www.w3.org/2000/svg">
<g filter="url(#filter0_d_1_63)">
<g clip-path="url(#clip0_1_63)">
<path d="M19.6869 6.44848H11.6906V12.5975L15.7811 15.746H19.6869V22.1944H11.8753L4 16.0467V0H19.6869V6.44848Z" fill="#A75FFF"/>
<path d="M32.3002 22.1944V17.0097H29.2239V22.1944H21.5334V6.14906L29.4087 0H39.9907V22.1944H32.3002ZM29.2239 11.3065H32.3002V7.22878L29.2239 9.59819V11.3065Z" fill="#A75FFF"/>
<path d="M48.2689 14.9669L41.8399 8.75826V0H57.4936V7.22878H51.0606L57.4896 13.4362V22.1944H41.8359V14.9669H48.2689Z" fill="#A75FFF"/>
<path d="M65.7677 14.9669L59.3387 8.75826V0H74.9964V7.22878H68.5674L74.9964 13.4362V22.1944H59.3387V14.9669H65.7677Z" fill="#A75FFF"/>
<path d="M84.5321 0V22.1944H76.8416V0H84.5321Z" fill="#A75FFF"/>
<path d="M97.1441 22.1944V17.0097H94.0679V22.1944H86.3773V6.14906L94.2527 0H104.833V22.1944H97.1441ZM94.0679 11.3065H97.1441V7.22878L94.0679 9.59819V11.3065Z" fill="#A75FFF"/>
<path d="M106.68 22.1944V0H114.83L119.199 6.41866V0H126.889V22.1944H119.168V19.4051L114.369 12.477V22.1983L106.68 22.1944Z" fill="#A75FFF"/>
<path d="M128.734 22.1944V0H147.192V22.1944H128.734ZM139.503 6.44848H136.425V15.746H139.501L139.503 6.44848Z" fill="#A75FFF"/>
<path d="M19.6869 6.44848H11.6906V12.5975L15.7811 15.746H19.6869V22.1944H11.8753L4 16.0467V0H19.6869V6.44848Z" fill="#8928FF"/>
<path d="M32.3002 22.1944V17.0097H29.2239V22.1944H21.5334V6.14906L29.4087 0H39.9907V22.1944H32.3002ZM29.2239 11.3065H32.3002V7.22878L29.2239 9.59819V11.3065Z" fill="#8928FF"/>
<path d="M48.2689 14.9669L41.8399 8.75826V0H57.4936V7.22878H51.0606L57.4896 13.4362V22.1944H41.8359V14.9669H48.2689Z" fill="#8928FF"/>
<path d="M65.7677 14.9669L59.3387 8.75826V0H74.9964V7.22878H68.5674L74.9964 13.4362V22.1944H59.3387V14.9669H65.7677Z" fill="#8928FF"/>
<path d="M84.5321 0V22.1944H76.8416V0H84.5321Z" fill="#8928FF"/>
<path d="M97.1441 22.1944V17.0097H94.0679V22.1944H86.3773V6.14906L94.2527 0H104.833V22.1944H97.1441ZM94.0679 11.3065H97.1441V7.22878L94.0679 9.59819V11.3065Z" fill="#8928FF"/>
<path d="M106.68 22.1944V0H114.83L119.199 6.41866V0H126.889V22.1944H119.168V19.4051L114.369 12.477V22.1983L106.68 22.1944Z" fill="#8928FF"/>
<path d="M128.734 22.1944V0H147.192V22.1944H128.734ZM139.503 6.44848H136.425V15.746H139.501L139.503 6.44848Z" fill="#8928FF"/>
<path d="M41.4105 41.2249H53.6542V65.4362H41.4105V61.2884H24.2188V35.7343L36.7576 25.9443H53.6542V36.2113H42.9765L36.4625 41.2249V51.0149H41.4105V41.2249Z" fill="#00EF9E"/>
<path d="M73.7348 61.2819V53.0201H68.8373V61.2819H56.5922V35.7343L69.1311 25.9443H85.9785V61.2819H73.7348ZM68.8373 43.9469H73.7348V37.4595L68.8373 41.2314V43.9469Z" fill="#00EF9E"/>
<path d="M101.162 25.9443V51.0149H110.026V61.2819H88.9164V25.9443H101.162Z" fill="#00EF9E"/>
<path d="M142.352 61.2819H125.507L112.969 51.4919V25.9443H125.213V46.0013L130.106 49.7732V25.9443H142.352V61.2819Z" fill="#00EF9E"/>
<path d="M162.431 61.2819V53.0201H157.533V61.2819H145.289V35.7343L157.827 25.9443H174.676V61.2819H162.431ZM166.594 18.3513H173.108L170.415 23.5567H159.78L158.262 20.6909L156.799 23.5567H150.285L152.979 18.3513H163.607L165.123 21.2171L166.594 18.3513ZM157.533 43.9468H162.431V37.4595L157.533 41.2314V43.9468Z" fill="#00EF9E"/>
<path d="M177.619 61.2819V25.9443H206.999V61.2819H177.619ZM194.768 36.2113H189.869V51.0149H194.768V36.2113Z" fill="#00EF9E"/>
<path d="M41.4105 41.2249H53.6542V65.4362H41.4105V61.2884H24.2188V35.7343L36.7576 25.9443H53.6542V36.2113H42.9765L36.4625 41.2249V51.0149H41.4105V41.2249Z" fill="#00EF9E"/>
<path d="M73.7348 61.2819V53.0201H68.8373V61.2819H56.5922V35.7343L69.1311 25.9443H85.9785V61.2819H73.7348ZM68.8373 43.9469H73.7348V37.4595L68.8373 41.2314V43.9469Z" fill="#00EF9E"/>
<path d="M101.162 25.9443V51.0149H110.026V61.2819H88.9164V25.9443H101.162Z" fill="#00EF9E"/>
<path d="M142.352 61.2819H125.507L112.969 51.4919V25.9443H125.213V46.0013L130.106 49.7732V25.9443H142.352V61.2819Z" fill="#00EF9E"/>
<path d="M162.431 61.2819V53.0201H157.533V61.2819H145.289V35.7343L157.827 25.9443H174.676V61.2819H162.431ZM166.594 18.3513H173.108L170.415 23.5567H159.78L158.262 20.6909L156.799 23.5567H150.285L152.979 18.3513H163.607L165.123 21.2171L166.594 18.3513ZM157.533 43.9468H162.431V37.4595L157.533 41.2314V43.9468Z" fill="#00EF9E"/>
<path d="M177.619 61.2819V25.9443H206.999V61.2819H177.619ZM194.768 36.2113H189.869V51.0149H194.768V36.2113Z" fill="#00EF9E"/>
<path d="M88.721 75.1186L86.8412 67.9896H89.1371L90.1833 72.8853H90.3163L91.5938 67.9896H93.7023L95.0223 72.8853H95.1553L96.1736 67.9896H98.4123L96.5511 75.1186H93.7129L92.6799 71.3701H92.547L91.5433 75.1186H88.721Z" fill="white"/>
<path d="M105.699 75.2314C105.131 75.2385 104.564 75.1951 104.005 75.1017C103.621 75.043 103.254 74.9047 102.93 74.696C102.67 74.5199 102.469 74.2747 102.349 73.9896C102.218 73.6598 102.136 73.3138 102.104 72.9618C102.059 72.4965 102.037 72.0293 102.04 71.5619C102.035 71.0056 102.068 70.4495 102.14 69.8976C102.187 69.485 102.334 69.0894 102.571 68.744C102.828 68.4152 103.192 68.1809 103.604 68.0791C104.217 67.9228 104.85 67.8526 105.483 67.8704C106.01 67.8617 106.536 67.9051 107.053 68C107.399 68.0566 107.725 68.196 108.001 68.4057C108.229 68.5959 108.399 68.8421 108.496 69.1186C108.61 69.454 108.677 69.8027 108.697 70.1555C108.725 70.5608 108.739 71.0292 108.739 71.5606V72.1063H104.328C104.324 72.361 104.339 72.6157 104.372 72.8684C104.387 73.0367 104.469 73.1925 104.601 73.3027C104.771 73.4159 104.969 73.4813 105.175 73.4919C105.529 73.5234 105.883 73.5373 106.238 73.5334C106.439 73.5334 106.661 73.5334 106.903 73.5191C107.145 73.5049 107.406 73.4958 107.678 73.4776L108.445 73.4219V74.9877C108.192 75.0414 107.936 75.0812 107.678 75.1069C107.378 75.1398 107.055 75.1678 106.71 75.1912C106.363 75.2197 106.026 75.2314 105.699 75.2314ZM106.567 71.1601V70.9514C106.571 70.6822 106.554 70.4131 106.516 70.1465C106.5 69.9874 106.441 69.8354 106.345 69.7058C106.257 69.6091 106.138 69.5449 106.007 69.5243C105.832 69.4935 105.654 69.4796 105.475 69.4828C105.269 69.4782 105.062 69.4943 104.859 69.5308C104.725 69.5527 104.605 69.6225 104.521 69.7265C104.435 69.8624 104.383 70.016 104.369 70.175C104.337 70.4329 104.322 70.6928 104.325 70.9527H106.807L106.567 71.1601Z" fill="white"/>
<path d="M117.613 75.2314C117.341 75.2319 117.069 75.2084 116.802 75.1614C116.542 75.1158 116.293 75.0206 116.071 74.8814C115.833 74.728 115.642 74.5154 115.518 74.2657H115.385L115.328 75.1186H113.147V64.7259H115.442V68.744H115.558C115.695 68.5261 115.881 68.3417 116.103 68.2048C116.316 68.0777 116.552 67.9898 116.798 67.9456C117.065 67.8977 117.337 67.8743 117.609 67.8756C117.983 67.8655 118.357 67.9272 118.707 68.057C119.008 68.1785 119.265 68.3853 119.445 68.6507C119.662 68.9945 119.807 69.3776 119.869 69.7771C119.968 70.3687 120.012 70.9677 120.002 71.5671C120.014 72.1688 119.968 72.7703 119.865 73.3636C119.8 73.761 119.654 74.1415 119.434 74.4822C119.252 74.7454 118.992 74.948 118.688 75.0629C118.344 75.1838 117.979 75.2409 117.613 75.2314ZM116.565 73.3843C116.772 73.3892 116.979 73.3727 117.182 73.3351C117.251 73.3235 117.317 73.2976 117.376 73.2591C117.434 73.2207 117.483 73.1706 117.52 73.1121C117.607 72.9422 117.656 72.7562 117.663 72.5664C117.687 72.3189 117.699 71.9819 117.699 71.5528C117.699 71.1238 117.687 70.7881 117.663 70.5457C117.655 70.3581 117.606 70.1744 117.52 70.0065C117.482 69.9477 117.433 69.8969 117.375 69.8573C117.317 69.8176 117.251 69.7899 117.182 69.7758C116.979 69.7336 116.772 69.7148 116.565 69.72C116.362 69.7128 116.158 69.7386 115.963 69.7965C115.817 69.8503 115.698 69.9584 115.633 70.0972C115.547 70.2802 115.496 70.477 115.482 70.6779C115.458 70.9164 115.446 71.208 115.446 71.5528C115.446 71.8976 115.458 72.1888 115.482 72.4264C115.496 72.6274 115.547 72.8241 115.633 73.0071C115.664 73.0746 115.709 73.1354 115.764 73.1859C115.82 73.2364 115.885 73.2757 115.956 73.3014C116.153 73.364 116.359 73.3921 116.565 73.3843Z" fill="white"/>
<path d="M133.98 75.2314C133.481 75.2439 132.981 75.1898 132.497 75.0706C132.151 74.9844 131.845 74.7872 131.629 74.5107C131.401 74.1754 131.258 73.7919 131.212 73.3921C131.058 72.1705 131.058 70.9351 131.212 69.7136C131.258 69.3133 131.4 68.9293 131.629 68.5937C131.845 68.3171 132.151 68.1202 132.497 68.035C132.981 67.9152 133.48 67.8611 133.98 67.8743C134.39 67.8682 134.799 67.9056 135.201 67.9857C135.511 68.0459 135.804 68.1696 136.061 68.3487C136.294 68.5215 136.473 68.754 136.578 69.0201H136.635V64.7259H137.138V75.1186H136.739L136.696 73.9585H136.639C136.533 74.2929 136.319 74.5849 136.029 74.7907C135.747 74.976 135.426 75.0978 135.089 75.1471C134.722 75.2042 134.352 75.2324 133.98 75.2314ZM134.124 74.7829C134.756 74.7829 135.263 74.6991 135.645 74.5314C135.825 74.4588 135.986 74.3484 136.117 74.2082C136.249 74.068 136.347 73.9013 136.405 73.72C136.52 73.381 136.588 73.0282 136.606 72.6714C136.625 72.3076 136.635 71.8695 136.635 71.3571C136.635 71.0218 136.625 70.6952 136.606 70.3772C136.592 70.0875 136.539 69.8007 136.449 69.5243C136.388 69.3244 136.286 69.1388 136.149 68.9787C136.011 68.8187 135.842 68.6877 135.651 68.5937C135.268 68.4122 134.737 68.3215 134.056 68.3215C133.628 68.3126 133.2 68.35 132.78 68.4329C132.486 68.489 132.221 68.6452 132.034 68.8736C131.835 69.1633 131.717 69.4982 131.69 69.8458C131.625 70.4125 131.596 70.9826 131.603 71.5528C131.595 72.1228 131.626 72.6927 131.696 73.2586C131.728 73.6064 131.849 73.9408 132.049 74.2307C132.24 74.4618 132.51 74.6182 132.809 74.6714C133.242 74.7572 133.682 74.7967 134.124 74.7894V74.7829Z" fill="white"/>
<path d="M145.615 75.2314C145.157 75.2376 144.699 75.2046 144.246 75.1329C143.924 75.0864 143.617 74.9694 143.349 74.7907C143.114 74.621 142.932 74.3907 142.825 74.1257C142.692 73.7897 142.61 73.4364 142.582 73.0771C142.537 72.6572 142.515 72.1534 142.516 71.5658C142.516 70.8676 142.54 70.2826 142.588 69.8108C142.613 69.4106 142.736 69.0221 142.947 68.6779C143.172 68.371 143.502 68.1526 143.878 68.0622C144.459 67.9195 145.057 67.8562 145.656 67.8743C146.092 67.8656 146.528 67.9029 146.955 67.9858C147.247 68.0403 147.52 68.1626 147.753 68.3422C147.96 68.5219 148.111 68.7545 148.19 69.0136C148.296 69.3544 148.359 69.7066 148.378 70.0622C148.406 70.477 148.42 70.9691 148.42 71.5386V71.72H143.012C143.005 72.2295 143.034 72.7388 143.099 73.2443C143.13 73.5801 143.249 73.9025 143.443 74.1815C143.644 74.4241 143.927 74.5901 144.241 74.6507C144.714 74.7494 145.198 74.7929 145.682 74.7803C145.94 74.7803 146.217 74.7712 146.514 74.7531C146.81 74.7336 147.099 74.7103 147.382 74.6831C147.665 74.6559 147.914 74.6222 148.134 74.5846V75.0486C147.905 75.093 147.672 75.1259 147.439 75.1471C147.157 75.1756 146.859 75.1964 146.543 75.2093C146.228 75.2223 145.918 75.2297 145.615 75.2314ZM147.924 71.5489V70.9786C147.934 70.5012 147.899 70.0239 147.818 69.5528C147.775 69.2589 147.648 68.9826 147.451 68.7557C147.259 68.5686 147.01 68.4464 146.741 68.407C146.369 68.3448 145.992 68.3166 145.615 68.3228C145.147 68.3134 144.678 68.3486 144.217 68.4278C143.915 68.4719 143.638 68.6177 143.435 68.8399C143.241 69.0999 143.124 69.4072 143.097 69.7278C143.038 70.2412 143.012 70.7576 143.019 71.2742H148.212L147.924 71.5489Z" fill="white"/>
<path d="M156.016 75.2314C155.768 75.2314 155.493 75.224 155.191 75.2093C154.89 75.1964 154.595 75.1769 154.309 75.1536C154.024 75.1303 153.763 75.1056 153.534 75.0771V74.6157C153.868 74.6533 154.151 74.6805 154.38 74.6999C154.609 74.7194 154.819 74.7349 155.005 74.7479C155.191 74.7609 155.377 74.7712 155.564 74.7764C155.752 74.7816 155.963 74.7829 156.217 74.7829C156.772 74.7829 157.183 74.7319 157.451 74.63C157.571 74.591 157.68 74.527 157.772 74.4424C157.864 74.3577 157.936 74.2545 157.983 74.14C158.08 73.8561 158.125 73.5577 158.115 73.2586C158.13 72.9457 158.096 72.6325 158.016 72.3292C157.993 72.2461 157.951 72.1692 157.892 72.1049C157.833 72.0405 157.76 71.9904 157.678 71.9585C157.463 71.8896 157.239 71.8461 157.013 71.8289L154.886 71.6332C154.55 71.6079 154.22 71.5278 153.911 71.396C153.799 71.3426 153.7 71.2681 153.619 71.1768C153.538 71.0856 153.476 70.9794 153.437 70.8646C153.34 70.5518 153.295 70.2257 153.304 69.8989C153.289 69.5203 153.35 69.1426 153.484 68.7868C153.586 68.5314 153.773 68.3172 154.016 68.1789C154.287 68.038 154.584 67.9524 154.89 67.9274C155.281 67.8878 155.674 67.8692 156.067 67.8717C156.286 67.8717 156.523 67.8782 156.777 67.8924C157.031 67.9067 157.281 67.9248 157.531 67.9482C157.78 67.9715 158.004 68.0013 158.205 68.0389V68.5003C157.927 68.4537 157.667 68.4165 157.423 68.3889C157.179 68.3612 156.93 68.3426 156.676 68.3331C156.423 68.3236 156.139 68.3189 155.822 68.3189C155.472 68.3159 155.122 68.3415 154.776 68.3953C154.496 68.4338 154.24 68.5724 154.058 68.7842C153.887 68.989 153.801 69.3295 153.8 69.8056C153.788 70.0864 153.822 70.3673 153.9 70.6377C153.927 70.7209 153.973 70.7972 154.034 70.8613C154.095 70.9253 154.169 70.9756 154.252 71.0084C154.472 71.0843 154.701 71.1314 154.933 71.1484L156.984 71.3441C157.329 71.36 157.668 71.431 157.989 71.5541C158.104 71.6056 158.206 71.6801 158.288 71.7728C158.371 71.8656 158.433 71.9744 158.469 72.092C158.575 72.4718 158.62 72.8654 158.602 73.2586C158.613 73.5977 158.564 73.9361 158.458 74.2592C158.375 74.4999 158.214 74.708 158 74.8529C157.754 75.006 157.478 75.1063 157.189 75.1471C156.801 75.2071 156.409 75.2352 156.016 75.2314Z" fill="white"/>
<path d="M163.793 65.5865V64.7324H164.412V65.5865H163.793ZM163.852 75.1251V67.9961H164.353V75.1251H163.852Z" fill="white"/>
<path d="M172.671 78C172.365 78 172.047 77.9957 171.717 77.987C171.386 77.9784 171.07 77.9667 170.77 77.952C170.47 77.9378 170.208 77.9209 169.988 77.9028V77.4413L170.871 77.4971C171.182 77.5152 171.486 77.529 171.782 77.5385C172.078 77.5481 172.35 77.5528 172.599 77.5528C173.078 77.5659 173.555 77.514 174.019 77.3986C174.337 77.3167 174.617 77.1344 174.817 76.8801C175.019 76.5804 175.142 76.2367 175.176 75.8794C175.239 75.3481 175.267 74.8135 175.261 74.2787V74.0829H175.204C175.099 74.3492 174.92 74.5817 174.688 74.7544C174.43 74.9337 174.137 75.0575 173.826 75.1173C173.425 75.1979 173.017 75.2357 172.607 75.2301C172.107 75.2426 171.607 75.1885 171.122 75.0693C170.777 74.9826 170.471 74.7854 170.254 74.5094C170.027 74.1738 169.884 73.7905 169.838 73.3908C169.686 72.1691 169.686 70.9339 169.838 69.7122C169.884 69.3121 170.027 68.9283 170.254 68.5923C170.471 68.3161 170.777 68.1193 171.122 68.0337C171.607 67.9139 172.107 67.8598 172.607 67.873C172.977 67.8717 173.347 67.8995 173.712 67.9559C174.048 68.0053 174.37 68.127 174.652 68.3124C174.942 68.5188 175.155 68.8112 175.261 69.1458H175.318L175.362 67.9792H175.761V74.105C175.768 74.7245 175.732 75.3438 175.653 75.9585C175.608 76.3848 175.46 76.7947 175.222 77.1549C174.994 77.4649 174.666 77.6927 174.292 77.803C173.765 77.9492 173.218 78.0156 172.671 78ZM172.757 74.7829C173.398 74.7829 173.907 74.6943 174.285 74.5172C174.468 74.4338 174.632 74.3134 174.764 74.1639C174.896 74.0144 174.994 73.8393 175.052 73.65C175.161 73.3459 175.224 73.0281 175.239 72.7064C175.258 72.3655 175.267 71.9818 175.267 71.5528C175.267 71.1238 175.267 70.757 175.246 70.4264C175.238 70.1294 175.187 69.835 175.096 69.5515C175.037 69.3454 174.934 69.1537 174.795 68.9887C174.655 68.8237 174.481 68.6891 174.285 68.5936C173.898 68.4122 173.388 68.3214 172.757 68.3214C172.315 68.3124 171.872 68.3498 171.437 68.4329C171.138 68.487 170.869 68.6433 170.677 68.8736C170.478 69.1637 170.357 69.4981 170.326 69.8457C170.202 70.9801 170.202 72.1242 170.326 73.2586C170.357 73.6062 170.478 73.9406 170.677 74.2307C170.868 74.4615 171.138 74.6178 171.437 74.6714C171.872 74.7573 172.314 74.7969 172.757 74.7894V74.7829Z" fill="white"/>
<path d="M181.508 75.1186V67.9896H181.906L181.95 69.1562H182.007C182.093 68.8946 182.244 68.6579 182.447 68.4673C182.65 68.2768 182.898 68.1385 183.169 68.0648C183.639 67.9278 184.128 67.8665 184.618 67.8834C185.092 67.8704 185.566 67.9219 186.025 68.0363C186.337 68.1141 186.618 68.2795 186.834 68.512C187.035 68.7583 187.165 69.053 187.208 69.3649C187.276 69.7907 187.307 70.2212 187.301 70.652V75.1277H186.799V70.7207C186.807 70.3017 186.778 69.8828 186.712 69.4686C186.677 69.2024 186.563 68.9521 186.382 68.7492C186.194 68.5675 185.95 68.4498 185.687 68.4135C185.301 68.3504 184.91 68.3222 184.519 68.3292C183.888 68.3292 183.4 68.4083 183.056 68.5664C182.74 68.6998 182.479 68.9343 182.317 69.2314C182.162 69.5418 182.071 69.8793 182.051 70.2243C182.023 70.6014 182.009 71.002 182.009 71.4349V75.1264L181.508 75.1186Z" fill="white"/>
<path d="M195.781 75.2314C195.323 75.2375 194.865 75.2045 194.412 75.1329C194.09 75.0862 193.783 74.9692 193.515 74.7907C193.28 74.6207 193.099 74.3905 192.991 74.1257C192.858 73.7896 192.776 73.4364 192.748 73.0771C192.705 72.6572 192.684 72.1534 192.684 71.5658C192.684 70.8676 192.707 70.2826 192.754 69.8108C192.779 69.4106 192.902 69.0221 193.113 68.6779C193.338 68.3709 193.668 68.1525 194.044 68.0622C194.625 67.9193 195.223 67.856 195.822 67.8743C196.258 67.8656 196.693 67.903 197.12 67.9857C197.411 68.0405 197.685 68.1628 197.918 68.3422C198.124 68.5223 198.276 68.7547 198.355 69.0136C198.461 69.3543 198.524 69.7065 198.541 70.0622C198.57 70.477 198.584 70.9695 198.584 71.5386V71.72H193.176C193.169 72.2294 193.198 72.7387 193.262 73.2443C193.294 73.5801 193.412 73.9025 193.606 74.1815C193.808 74.424 194.09 74.5901 194.404 74.6507C194.877 74.7493 195.361 74.7928 195.845 74.7803C196.104 74.7803 196.377 74.7712 196.677 74.7531C196.978 74.7349 197.263 74.7103 197.545 74.6831C197.827 74.6559 198.077 74.6222 198.299 74.5846V75.0486C198.069 75.0929 197.836 75.1258 197.602 75.1471C197.321 75.1756 197.022 75.1964 196.706 75.2093C196.398 75.2236 196.088 75.2314 195.781 75.2314ZM198.092 71.5489V70.9786C198.101 70.5011 198.065 70.0238 197.984 69.5528C197.941 69.2591 197.814 68.9831 197.618 68.7557C197.425 68.5689 197.176 68.4468 196.907 68.407C196.535 68.3448 196.158 68.3166 195.781 68.3228C195.313 68.3135 194.844 68.3487 194.383 68.4277C194.081 68.4725 193.805 68.6182 193.601 68.8399C193.407 69.1001 193.291 69.4073 193.265 69.7278C193.204 70.2411 193.178 70.7576 193.185 71.2741H198.379L198.092 71.5489Z" fill="white"/>
<path d="M203.973 75.1186V67.9896H204.361L204.418 69.5139H204.475C204.554 69.1306 204.738 68.7753 205.007 68.4861C205.247 68.2493 205.55 68.0823 205.882 68.0039C206.245 67.9157 206.619 67.8722 206.993 67.8743V68.3772C206.296 68.3772 205.764 68.4986 205.398 68.7414C205.027 68.9955 204.764 69.3737 204.66 69.8043C204.52 70.3574 204.455 70.9261 204.466 71.4958V75.1186H203.973Z" fill="white"/>
</g>
</g>
<defs>
<filter id="filter0_d_1_63" x="0" y="0" width="211" height="86" filterUnits="userSpaceOnUse" color-interpolation-filters="sRGB">
<feFlood flood-opacity="0" result="BackgroundImageFix"/>
<feColorMatrix in="SourceAlpha" type="matrix" values="0 0 0 0 0 0 0 0 0 0 0 0 0 0 0 0 0 0 127 0" result="hardAlpha"/>
<feOffset dy="4"/>
<feGaussianBlur stdDeviation="2"/>
<feComposite in2="hardAlpha" operator="out"/>
<feColorMatrix type="matrix" values="0 0 0 0 0 0 0 0 0 0 0 0 0 0 0 0 0 0 0.25 0"/>
<feBlend mode="normal" in2="BackgroundImageFix" result="effect1_dropShadow_1_63"/>
<feBlend mode="normal" in="SourceGraphic" in2="effect1_dropShadow_1_63" result="shape"/>
</filter>
<clipPath id="clip0_1_63">
<rect width="203" height="78" fill="white" transform="translate(4)"/>
</clipPath>
</defs>
</svg>
